<?xml version="1.0" encoding="UTF-8"?>
<svg id="Layer_2" data-name="Layer 2" xmlns="http://www.w3.org/2000/svg" viewBox="0 0 527.6 314.7">
  <defs>
    <style>
      .cls-1 {
        fill: #27326f;
      }

      .cls-1, .cls-2, .cls-3 {
        stroke-width: 0px;
      }

      .cls-2 {
        fill: #fff;
      }

      .cls-3 {
        fill: #d8212b;
      }
    </style>
  </defs>
  <g id="Layer_2-2" data-name="Layer 2">
    <g>
      <rect class="cls-2" x="0" width="527.6" height="314.7"/>
      <polygon class="cls-1" points="52.31 0 226.57 106.68 226.57 0 52.31 0"/>
      <polygon class="cls-1" points="0 31.69 141.01 117.24 0 117.24 0 31.69"/>
      <polygon class="cls-1" points="0 281.5 141.03 195.91 0 195.91 0 281.5"/>
      <polygon class="cls-1" points="53.36 314.7 226.57 314.7 226.57 207.54 53.36 314.7"/>
      <polygon class="cls-1" points="302.11 207.03 475.83 314.7 302.11 314.7 302.11 207.03"/>
      <polygon class="cls-1" points="385.55 195.91 527.6 281.98 527.6 195.93 385.55 195.91"/>
      <polygon class="cls-1" points="385.53 117.24 527.6 31.69 527.6 117.24 385.53 117.24"/>
      <polygon class="cls-1" points="301.57 107.2 475.84 0 301.57 0 301.57 107.2"/>
      <polygon class="cls-3" points="0 130.97 0 182.19 240.83 182.19 240.83 314.7 287.82 314.7 287.82 182.19 527.6 182.19 527.6 130.97 287.82 130.97 287.82 0 240.83 0 240.83 130.99 0 130.97"/>
      <polygon class="cls-3" points="303.16 117.24 493.83 0 527.6 0 336.94 117.24 303.16 117.24"/>
      <polygon class="cls-3" points="331.67 195.91 527.6 314.7 527.6 293.13 366.01 195.91 331.67 195.91"/>
      <path class="cls-3" d="M0,0c64.79,39.08,129.58,78.16,194.37,117.24-11.62,0-23.24,0-34.86,0C106.34,85.02,53.17,52.81,0,20.59V0Z"/>
      <polygon class="cls-3" points="226.57 195.91 34.33 314.7 0 314.7 192.28 195.91 226.57 195.91"/>
    </g>
  </g>
</svg>