<svg width="18" height="18" viewBox="0 0 18 18" fill="none" xmlns="http://www.w3.org/2000/svg">
<path d="M5.88889 7V5H16V7H5.88889ZM5.88889 11V9H16V11H5.88889ZM5.88889 15V13H16V15H5.88889ZM3.72222 7C3.51759 7 3.34606 6.90417 3.20764 6.7125C3.06921 6.52083 3 6.28333 3 6C3 5.71667 3.06921 5.47917 3.20764 5.2875C3.34606 5.09583 3.51759 5 3.72222 5C3.92685 5 4.09838 5.09583 4.23681 5.2875C4.37523 5.47917 4.44444 5.71667 4.44444 6C4.44444 6.28333 4.37523 6.52083 4.23681 6.7125C4.09838 6.90417 3.92685 7 3.72222 7ZM3.72222 11C3.51759 11 3.34606 10.9042 3.20764 10.7125C3.06921 10.5208 3 10.2833 3 10C3 9.71667 3.06921 9.47917 3.20764 9.2875C3.34606 9.09583 3.51759 9 3.72222 9C3.92685 9 4.09838 9.09583 4.23681 9.2875C4.37523 9.47917 4.44444 9.71667 4.44444 10C4.44444 10.2833 4.37523 10.5208 4.23681 10.7125C4.09838 10.9042 3.92685 11 3.72222 11ZM3.72222 15C3.51759 15 3.34606 14.9042 3.20764 14.7125C3.06921 14.5208 3 14.2833 3 14C3 13.7167 3.06921 13.4792 3.20764 13.2875C3.34606 13.0958 3.51759 13 3.72222 13C3.92685 13 4.09838 13.0958 4.23681 13.2875C4.37523 13.4792 4.44444 13.7167 4.44444 14C4.44444 14.2833 4.37523 14.5208 4.23681 14.7125C4.09838 14.9042 3.92685 15 3.72222 15Z" fill="white"/>
</svg>
