<svg width="28" height="28" viewBox="0 0 28 28" fill="none" xmlns="http://www.w3.org/2000/svg">
<path d="M10.7917 25.6666L10.325 21.9333C10.0722 21.8361 9.83405 21.7194 9.61044 21.5833C9.38683 21.4472 9.16808 21.3014 8.95419 21.1458L5.48336 22.6041L2.27502 17.0625L5.27919 14.7875C5.25975 14.6514 5.25002 14.5201 5.25002 14.3937V13.6062C5.25002 13.4798 5.25975 13.3486 5.27919 13.2125L2.27502 10.9375L5.48336 5.39581L8.95419 6.85415C9.16808 6.69859 9.39169 6.55276 9.62502 6.41665C9.85836 6.28054 10.0917 6.16387 10.325 6.06665L10.7917 2.33331H17.2084L17.675 6.06665C17.9278 6.16387 18.166 6.28054 18.3896 6.41665C18.6132 6.55276 18.832 6.69859 19.0459 6.85415L22.5167 5.39581L25.725 10.9375L22.7209 13.2125C22.7403 13.3486 22.75 13.4798 22.75 13.6062V14.3937C22.75 14.5201 22.7306 14.6514 22.6917 14.7875L25.6959 17.0625L22.4875 22.6041L19.0459 21.1458C18.832 21.3014 18.6084 21.4472 18.375 21.5833C18.1417 21.7194 17.9084 21.8361 17.675 21.9333L17.2084 25.6666H10.7917ZM12.8334 23.3333H15.1375L15.5459 20.2416C16.1486 20.0861 16.7077 19.8576 17.2229 19.5562C17.7382 19.2548 18.2097 18.8903 18.6375 18.4625L21.525 19.6583L22.6625 17.675L20.1542 15.7791C20.2514 15.5069 20.3195 15.2201 20.3584 14.9187C20.3972 14.6173 20.4167 14.3111 20.4167 14C20.4167 13.6889 20.3972 13.3826 20.3584 13.0812C20.3195 12.7798 20.2514 12.493 20.1542 12.2208L22.6625 10.325L21.525 8.34165L18.6375 9.56665C18.2097 9.11942 17.7382 8.74512 17.2229 8.44373C16.7077 8.14234 16.1486 7.91387 15.5459 7.75831L15.1667 4.66665H12.8625L12.4542 7.75831C11.8514 7.91387 11.2924 8.14234 10.7771 8.44373C10.2618 8.74512 9.7903 9.1097 9.36252 9.53748L6.47502 8.34165L5.33752 10.325L7.84586 12.1916C7.74864 12.4833 7.68058 12.775 7.64169 13.0666C7.6028 13.3583 7.58336 13.6694 7.58336 14C7.58336 14.3111 7.6028 14.6125 7.64169 14.9041C7.68058 15.1958 7.74864 15.4875 7.84586 15.7791L5.33752 17.675L6.47502 19.6583L9.36252 18.4333C9.7903 18.8805 10.2618 19.2548 10.7771 19.5562C11.2924 19.8576 11.8514 20.0861 12.4542 20.2416L12.8334 23.3333ZM14.0584 18.0833C15.1861 18.0833 16.1486 17.6847 16.9459 16.8875C17.7431 16.0903 18.1417 15.1278 18.1417 14C18.1417 12.8722 17.7431 11.9097 16.9459 11.1125C16.1486 10.3153 15.1861 9.91665 14.0584 9.91665C12.9111 9.91665 11.9438 10.3153 11.1563 11.1125C10.3688 11.9097 9.97502 12.8722 9.97502 14C9.97502 15.1278 10.3688 16.0903 11.1563 16.8875C11.9438 17.6847 12.9111 18.0833 14.0584 18.0833Z" fill="#707070"/>
</svg>
